<svg width="687" height="691" viewBox="0 0 687 691" fill="none" xmlns="http://www.w3.org/2000/svg">
<g clip-path="url(#clip0_127_242)">
<path d="M192.57 431.537C192.252 443.862 193.843 456.187 197.104 467.956C208.16 461.117 221.762 458.573 234.568 460.958C232.42 449.667 226.375 439.171 217.705 431.696C209.035 424.222 192.888 418.735 192.57 431.537Z" fill="#9E804F"/>
<path d="M479.794 431.219C480.113 443.544 478.522 455.869 475.261 467.638C464.204 460.799 450.603 458.255 437.797 460.64C439.944 449.349 445.989 438.853 454.659 431.378C463.329 423.903 479.476 418.417 479.794 431.219Z" fill="#9E804F"/>
<path d="M538.973 468.512C531.735 470.659 523.144 470.739 514.474 470.818C517.656 465.888 518.452 459.606 516.622 454.04C516.463 453.563 516.304 453.166 516.145 452.688C516.145 453.961 515.986 455.233 515.668 456.505C515.349 457.857 514.793 459.209 514.077 460.481C512.884 462.708 511.134 464.696 509.145 466.286C505.168 469.387 499.998 470.818 495.066 470.262C494.669 470.262 494.271 470.182 493.953 470.103C494.43 469.467 494.828 468.671 495.146 467.797C495.703 465.809 495.782 463.423 495.384 461.197C495.305 460.879 495.305 460.561 495.225 460.243C494.669 457.3 493.555 454.438 492.362 451.655C493.078 455.313 492.919 459.05 491.964 462.628C491.407 464.695 490.612 466.763 489.578 468.592C484.169 468.989 478.919 468.989 473.59 468.989C473.59 468.592 474.306 434.559 474.306 434.559C465.795 438.216 458.716 445.055 454.818 453.404C461.182 432.65 452.432 410.704 444.637 390.506C431.274 355.996 420.297 320.452 404.628 286.976C389.435 254.453 365.811 221.215 337.574 198.712C337.097 198.315 336.54 197.917 336.063 197.519C335.506 197.917 334.949 198.394 334.392 198.871C306.314 221.374 282.691 254.612 267.498 287.055C251.828 320.452 240.852 355.917 227.489 390.427C219.694 410.624 210.944 432.65 217.307 453.325C213.41 444.975 206.331 438.057 197.82 434.479C197.82 434.479 198.536 468.512 198.536 468.91C193.206 468.91 187.957 468.91 182.548 468.512C182.548 468.433 182.468 468.433 182.468 468.353C179.684 463.264 178.73 457.221 179.764 451.575C179.525 452.132 179.287 452.689 179.048 453.245C178.014 455.79 177.139 458.414 176.741 461.197C176.264 464.536 176.503 468.035 178.173 470.182C172.844 471.057 167.196 469.705 162.901 466.365C159.878 463.98 157.572 460.64 156.538 457.062C156.14 455.631 155.901 454.199 155.901 452.768C154.39 456.505 154.072 460.72 154.947 464.616C155.424 466.842 156.299 468.989 157.572 470.898C148.981 470.818 140.311 470.659 133.073 468.592C126.471 409.909 124.085 350.828 125.755 291.826C126.789 255.328 130.05 217.001 150.015 186.387C168.867 157.523 201.399 138.836 235.522 133.429C269.009 128.101 303.451 137.166 333.358 151.877C333.915 152.115 334.472 152.433 335.029 152.672C335.506 152.433 336.063 152.195 336.54 151.956C366.527 137.246 403.037 128.101 436.524 133.429C470.647 138.836 503.18 157.523 522.031 186.387C541.996 217.001 545.257 255.328 546.291 291.826C548.041 350.748 545.575 409.829 538.973 468.512Z" fill="url(#paint0_linear_127_242)"/>
<path d="M337.176 196.168C319.439 180.503 292.872 176.686 269.964 183.047C247.056 189.488 227.568 205.074 213.092 223.68C206.331 232.427 200.286 242.526 200.445 253.499C222.796 248.569 245.067 243.719 267.419 238.789C281.02 235.767 294.781 232.745 307.428 226.941C320.075 221.056 331.688 212.071 337.176 196.168Z" fill="#C4974F"/>
<path d="M335.029 196.168C352.767 180.503 379.333 176.686 402.241 183.047C425.149 189.488 444.637 205.074 459.114 223.68C465.875 232.427 471.92 242.526 471.761 253.499C449.41 248.569 427.138 243.719 404.787 238.789C391.185 235.767 377.424 232.745 364.777 226.941C352.051 221.056 340.438 212.071 335.029 196.168Z" fill="#C4974F"/>
<path d="M416.559 462.469C423.32 462.469 430.001 463.185 436.603 464.616C419.581 470.341 400.81 470.659 384.822 478.85C377.663 482.507 371.3 487.676 364.3 491.731C357.619 495.628 344.415 499.206 336.222 499.126C336.063 499.126 335.983 499.126 335.824 499.126C327.631 499.206 314.428 495.628 307.746 491.731C300.746 487.676 294.463 482.587 287.224 478.85C271.237 470.739 252.465 470.421 235.522 464.696C242.124 463.344 248.806 462.549 255.567 462.549C259.226 462.549 263.203 461.117 265.987 461.753C273.066 463.264 280.225 464.855 287.304 466.365C292.315 467.479 297.406 468.592 301.94 470.977C314.825 478.054 322.859 495.071 337.017 499.047C351.176 495.071 357.46 478.054 370.345 470.977C374.8 468.512 379.89 467.399 384.901 466.365C391.981 464.855 399.139 463.264 406.218 461.753C408.923 461.117 412.9 462.469 416.559 462.469Z" fill="#FFE0BD"/>
<path d="M476.613 371.025C476.533 375.955 476.454 380.805 476.374 385.735C476.215 394.641 475.897 403.468 475.579 412.373C475.261 420.325 474.942 428.197 474.545 436.149C468.102 445.452 459.511 453.245 449.728 458.811C449.807 454.756 447.023 452.291 443.921 450.78C439.228 448.474 433.819 447.917 428.649 447.599C367.164 443.544 305.36 459.845 244.192 452.37C240.693 451.973 237.193 451.416 233.772 452.211C230.352 453.007 227.091 455.313 226.296 458.732C226.137 459.368 226.057 460.084 226.136 460.72C219.614 457.459 213.569 453.245 208.24 448.315C204.342 444.657 200.842 440.602 197.82 436.228C197.74 434.797 197.661 433.366 197.581 432.014C197.263 425.653 197.024 419.291 196.786 412.93C196.786 412.771 196.786 412.612 196.786 412.453C196.468 403.706 196.229 394.959 195.99 386.213C195.911 381.282 195.752 376.352 195.672 371.422C195.274 342.796 195.354 314.17 195.672 285.624C195.672 284.59 195.672 283.477 195.672 282.443C195.752 279.263 195.752 276.082 195.831 272.981C195.99 267.812 196.388 262.723 197.342 257.714C198.058 253.897 199.013 250.239 200.365 246.661C205.774 232.825 217.069 221.852 230.034 214.616C242.999 207.379 257.635 203.563 272.271 200.859C292.951 197.042 314.109 195.213 335.108 195.531C340.119 195.452 345.21 195.532 350.38 195.691C358.573 195.929 366.925 196.486 375.197 197.36C383.629 198.235 391.981 199.428 399.935 200.859C414.57 203.563 429.206 207.379 442.171 214.616C455.137 221.852 466.511 232.825 471.84 246.661C475.101 255.09 476.056 264.154 476.374 273.219C476.454 276.32 476.533 279.422 476.533 282.443C476.533 283.556 476.533 284.67 476.533 285.783C476.931 314.091 477.01 342.558 476.613 371.025Z" fill="#FFE0BD"/>
<path d="M506.043 632.714C505.089 639.235 503.816 646.312 498.884 650.685C493.953 655.138 486.714 655.615 480.113 655.854C457.523 656.728 435.013 657.682 412.741 658.478C406.855 658.716 400.969 658.875 395.083 659.114C384.345 659.432 373.606 659.75 362.073 659.034C361.993 659.034 361.993 659.034 361.914 659.034C354.994 661.976 347.835 664.6 340.676 666.827V630.647C342.426 631.283 344.176 631.84 345.926 632.237C350.937 633.43 356.107 633.748 361.278 633.271C363.425 633.032 365.573 632.714 367.72 632.158C377.265 629.852 386.015 624.445 382.833 605.917C395.639 596.614 409.241 586.992 424.99 585.322C434.615 584.368 444.319 586.436 453.784 588.742C465.159 591.525 476.454 594.546 487.669 597.886C492.68 599.397 497.93 601.067 501.589 604.804C508.509 611.881 507.475 623.093 506.043 632.714Z" fill="#FFE0BD"/>
<path d="M672.046 462.946C671.092 473.601 669.899 485.052 662.978 493.242C654.865 502.864 641.264 505.329 628.776 507.237C609.367 510.179 588.369 512.803 571.585 503.182C550.507 515.745 529.19 528.468 512.565 546.439C509.543 549.619 506.679 553.118 502.782 555.106C498.884 557.094 493.635 557.412 489.896 554.47C486.874 554.072 483.771 553.595 480.749 552.959C480.749 552.959 480.749 552.959 480.669 552.959C477.329 552.243 473.988 551.448 470.727 550.494H470.647C467.784 549.699 464.92 548.745 462.136 547.711C449.41 543.019 437.319 536.181 426.342 527.514C426.342 530.217 426.104 533 425.786 535.704C425.627 536.658 425.547 537.692 425.388 538.646C422.524 555.424 413.775 571.248 400.889 582.38V582.46C400.969 582.857 401.605 586.436 402.48 589.139C402.878 590.491 403.355 591.684 403.832 592.161C403.991 592.32 404.15 592.399 404.309 592.399C404.309 592.558 404.31 592.717 404.23 592.876C404.071 594.467 403.912 595.978 403.753 597.568C395.162 603.691 385.697 608.7 375.834 612.438C364.141 616.89 351.812 619.674 339.324 620.469C339.165 620.469 339.006 620.469 338.847 620.548C338.688 620.548 338.529 620.548 338.37 620.469C327.234 619.753 315.143 617.527 303.451 613.948C290.724 610.052 278.475 604.565 268.612 597.568C268.453 595.819 268.214 594.069 268.055 592.399C268.134 592.399 268.294 592.32 268.373 592.24C268.532 592.161 268.612 592.002 268.771 591.843C269.009 591.525 269.248 590.968 269.487 590.411C270.521 587.628 271.396 583.096 271.475 582.46V582.38C271.077 582.062 270.68 581.665 270.282 581.346C255.169 567.749 246.101 547.711 245.942 527.434C245.942 527.434 245.942 527.434 245.863 527.434C228.284 541.35 208.001 550.335 186.843 553.834C185.411 554.072 183.9 554.311 182.468 554.47C178.65 557.412 173.48 557.173 169.582 555.106C165.685 553.118 162.742 549.619 159.799 546.439C143.095 528.547 121.778 515.745 100.779 503.182C83.9958 512.803 62.9969 510.179 43.5887 507.237C31.1007 505.408 17.4991 502.864 9.3859 493.242C2.3067 485.052 1.03404 473.601 0.0795405 462.946C-0.159084 460.084 -0.159084 456.585 2.3067 454.995C4.77249 453.404 7.95415 454.915 10.579 456.346C27.2032 465.332 46.3727 469.546 65.3036 468.353C60.2129 465.65 55.7586 459.925 53.3724 453.484C52.736 451.893 52.4179 449.826 53.5314 448.554C54.8041 447.122 57.1108 447.599 58.9403 448.077C71.6669 451.734 84.3935 455.392 97.1202 459.129C101.177 460.322 105.392 461.594 108.415 464.537C111.438 467.479 112.71 472.727 110.006 475.987C134.266 477.736 157.254 486.086 176.503 499.762C176.582 499.683 176.662 499.524 176.821 499.444C179.843 495.866 183.184 492.526 186.684 489.346C198.615 478.77 213.171 470.739 228.602 466.365C230.909 465.729 233.216 465.093 235.602 464.616C242.204 463.264 248.885 462.469 255.646 462.469C259.305 462.469 263.282 461.038 266.066 461.674C273.146 463.185 280.304 464.775 287.383 466.286C292.395 467.399 297.485 468.512 302.019 470.898C314.905 477.975 322.939 494.991 337.097 498.967C351.255 494.991 357.539 477.975 370.425 470.898C374.879 468.433 379.97 467.32 384.981 466.286C392.06 464.775 399.219 463.185 406.298 461.674C409.082 461.038 413.059 462.469 416.718 462.469C423.479 462.469 430.16 463.185 436.762 464.616C439.308 465.173 441.773 465.809 444.319 466.524C458.875 470.739 472.556 478.134 484.01 487.835C484.805 488.471 485.521 489.187 486.317 489.823C489.339 492.526 492.123 495.389 494.748 498.411C495.146 498.888 495.544 499.285 495.941 499.762C496.1 499.683 496.259 499.524 496.419 499.444C515.588 485.926 538.337 477.657 562.438 475.987C559.734 472.727 561.006 467.558 564.029 464.537C567.051 461.594 571.267 460.322 575.324 459.129C588.05 455.472 600.777 451.814 613.504 448.077C615.333 447.52 617.64 447.122 618.912 448.554C620.106 449.826 619.708 451.814 619.072 453.484C616.685 460.004 612.231 465.729 607.14 468.353C625.992 469.546 645.161 465.332 661.865 456.346C664.41 454.995 667.671 453.484 670.137 454.995C672.285 456.585 672.285 460.084 672.046 462.946Z" fill="#FFE0BD"/>
<path d="M412.741 658.557C406.855 658.796 400.969 658.955 395.083 659.193C384.345 659.511 373.606 659.829 362.073 659.114C354.278 655.695 347.04 651.162 340.676 645.596C336.62 642.097 332.881 638.201 329.54 633.987C333.279 634.146 337.017 633.907 340.676 633.271C342.426 633.032 344.176 632.635 345.926 632.237C349.028 631.442 352.13 630.488 355.073 629.216C357.141 630.647 359.209 631.999 361.278 633.271C377.424 643.529 394.765 652.037 412.741 658.557Z" fill="#FFD9AE"/>
<path d="M339.245 620.389C339.245 620.469 339.245 620.469 339.245 620.389C339.085 620.469 338.926 620.469 338.767 620.469C338.926 620.469 339.085 620.469 339.245 620.389Z" fill="#FFE0BD"/>
<path d="M289.292 605.917C276.486 596.614 262.885 586.992 247.135 585.322C237.511 584.289 227.807 586.436 218.341 588.742C206.967 591.525 195.672 594.546 184.457 597.886C179.446 599.397 174.196 601.067 170.457 604.804C163.617 611.801 164.651 623.013 166.083 632.635C167.037 639.155 168.31 646.232 173.241 650.605C178.173 655.058 185.411 655.536 192.013 655.774C220.569 656.887 249.124 658.08 277.043 659.034C287.781 659.352 298.599 659.67 310.212 658.955C334.233 669.212 360.164 675.017 385.458 675.812C388.56 675.574 391.106 673.268 392.935 670.723C394.367 668.735 395.48 666.429 395.878 663.964C396.276 661.499 395.719 658.875 394.208 656.967C392.696 655.058 389.992 653.945 387.447 654.899C372.731 651.401 358.732 644.88 346.562 635.895C342.665 632.953 338.29 629.613 333.279 629.852C324.211 633.589 313.95 634.384 304.485 632.078C294.94 629.852 286.19 624.445 289.292 605.917Z" fill="#FFE0BD"/>
<path d="M394.128 619.117C408.605 614.664 419.025 599.953 434.137 598.284C447.5 596.773 459.67 606.076 473.988 607.826C466.352 606.076 459.591 601.703 452.591 598.204C445.591 594.626 437.637 591.843 430.001 593.592C421.809 595.421 415.366 602.18 407.173 604.247C400.014 606.076 392.935 606.792 389.117 601.544C387.208 603.452 385.219 603.134 384.981 605.838C384.742 608.541 385.219 611.245 385.856 613.948C386.333 615.857 386.89 617.845 388.322 619.276C389.674 620.628 391.344 619.992 394.128 619.117Z" fill="#FFD4A3"/>
<path d="M292.315 602.657C283.963 598.761 276.566 595.978 268.293 592.081C268.453 592.002 268.532 591.843 268.691 591.684C268.93 591.366 269.168 590.809 269.407 590.252C270.441 587.469 271.316 582.937 271.396 582.301C278.634 589.219 284.918 595.739 292.315 602.657Z" fill="#FFD4A3"/>
<path d="M403.753 592.002C397.787 595.182 391.981 596.932 384.981 598.522C390.867 593.194 395.242 587.867 400.81 582.221V582.301C400.889 582.698 401.526 586.277 402.4 588.98C402.798 590.332 403.275 591.525 403.753 592.002Z" fill="#FFD4A3"/>
<path d="M276.168 619.117C261.692 614.664 251.272 599.953 236.159 598.284C222.796 596.773 210.626 606.076 196.308 607.826C203.944 606.076 210.705 601.703 217.705 598.204C224.705 594.626 232.659 591.843 240.295 593.592C248.488 595.421 254.931 602.18 263.123 604.247C270.282 606.076 278.793 608.303 282.611 602.975C284.52 604.883 285.156 603.134 285.315 605.838C285.474 608.541 285.077 611.245 284.44 613.948C283.963 615.857 283.406 617.845 281.975 619.276C280.622 620.628 278.952 619.992 276.168 619.117Z" fill="#FFD4A3"/>
<path d="M395.958 618.481C389.435 623.093 382.913 627.625 375.675 630.806C368.436 633.987 343.46 635.895 343.46 635.895C343.46 635.895 340.199 633.35 338.449 632.476C334.552 630.488 330.018 630.885 325.802 632.078C323.177 632.794 320.632 633.668 318.086 634.225C310.291 635.736 302.178 634.066 294.94 630.885C287.702 627.705 281.1 623.093 274.657 618.56C278.634 612.279 281.497 604.645 282.293 596.852C291.52 601.305 300.587 606.633 308.78 613.074C317.291 614.584 326.916 615.3 335.586 615.3H335.904C344.574 615.3 353.244 614.584 361.755 613.074C369.948 606.633 379.015 601.305 388.242 596.852C389.117 604.645 391.981 612.278 395.958 618.481Z" fill="#40413C"/>
<path opacity="0.5608" d="M444.16 466.524C429.286 465.968 414.65 471.614 401.366 478.611C387.367 486.086 372.016 494.753 359.607 504.692C347.04 514.712 334.313 512.883 319.359 507.635C306.473 503.102 290.326 491.095 278.475 484.416C267.021 477.975 254.056 474.715 241.249 472.011C237.59 471.216 233.772 470.421 230.67 468.353C229.875 467.797 229.159 467.161 228.523 466.445C230.829 465.809 233.136 465.173 235.522 464.696C242.124 463.344 248.806 462.549 255.567 462.549C259.226 462.549 263.203 461.117 265.987 461.753C273.066 463.264 280.225 464.855 287.304 466.365C292.315 467.479 297.406 468.592 301.94 470.977C314.825 478.054 322.859 495.071 337.017 499.047C351.176 495.071 357.46 478.054 370.345 470.977C374.8 468.512 379.89 467.399 384.901 466.365C391.981 464.855 399.139 463.264 406.218 461.753C409.002 461.117 412.979 462.549 416.638 462.549C423.399 462.549 430.081 463.264 436.683 464.696C439.149 465.173 441.694 465.729 444.16 466.524Z" fill="#FFD4A3"/>
<path d="M62.9173 470.023C67.5307 470.262 71.9851 473.204 73.9736 477.418C75.9621 481.633 75.4849 486.881 72.7009 490.618C73.3373 482.11 68.6443 473.363 62.9173 470.023Z" fill="#FFD4A3"/>
<path d="M608.095 471.613C603.959 470.659 599.345 473.84 598.709 478.054C598.152 482.03 600.618 485.767 603.004 489.028C601.493 485.767 601.254 481.951 602.447 478.611C603.641 475.271 606.186 472.409 608.095 471.613Z" fill="#FFD4A3"/>
<path d="M475.579 412.374C475.261 420.325 474.942 428.197 474.545 436.149C465.875 448.633 453.307 458.414 439.149 463.741C421.57 470.341 401.685 470.262 384.981 478.77C377.822 482.428 371.459 487.596 364.459 491.652C357.778 495.548 344.574 499.126 336.381 499.047C336.222 499.047 336.142 499.047 335.983 499.047C327.791 499.126 314.587 495.548 307.905 491.652C300.906 487.596 294.622 482.507 287.383 478.77C270.68 470.262 250.794 470.262 233.216 463.741C218.978 458.414 206.41 448.633 197.74 436.149C197.343 428.197 196.945 420.325 196.706 412.374C204.978 416.031 214.603 416.667 223.591 415.475C234.329 414.043 244.511 410.306 254.851 407.125C279.748 399.333 311.485 394.403 337.892 392.335C338.37 392.335 338.847 392.256 339.324 392.256C339.801 392.256 340.279 392.335 340.756 392.335C366.766 394.403 392.537 399.333 417.434 407.125C427.774 410.306 437.956 414.043 448.694 415.475C457.682 416.667 467.306 416.031 475.579 412.374Z" fill="#C29142"/>
<path d="M340.676 392.097C340.676 392.097 340.676 392.176 340.676 392.335C340.199 392.335 339.722 392.256 339.245 392.256C339.722 392.176 340.199 392.176 340.676 392.097Z" fill="#C29142"/>
<path d="M339.245 392.256C338.767 392.256 338.29 392.335 337.813 392.335C337.813 392.176 337.813 392.097 337.813 392.097C338.29 392.176 338.767 392.176 339.245 392.256Z" fill="#C29142"/>
<path d="M374.879 411.896C373.288 415.554 371.618 419.212 369.311 422.472C363.823 430.344 350.142 426.925 341.551 425.255C336.938 424.381 332.165 424.381 327.552 425.255C319.041 426.925 306.076 430.503 300.587 422.472C298.36 419.212 296.61 415.554 295.019 411.896L332.165 404.501L334.87 403.945L337.574 404.501L374.879 411.896Z" fill="#FFE0BD"/>
<path d="M404.787 404.978C403.594 407.523 401.287 409.431 398.901 410.942C389.594 416.508 377.822 415.952 367.243 413.328C358.812 411.181 350.698 407.921 342.267 405.774C338.21 404.74 333.995 404.74 329.938 405.774C321.507 407.841 313.394 411.181 304.962 413.328C294.463 415.952 282.611 416.588 273.305 410.942C270.918 409.511 268.612 407.523 267.419 404.978C266.146 402.434 266.146 399.174 267.816 396.947C269.646 394.482 272.986 393.687 276.009 393.926C279.032 394.085 281.975 395.118 284.997 395.516C301.78 397.663 319.359 385.099 336.301 385.099C353.244 385.099 370.345 397.663 387.129 395.516C390.151 395.118 393.094 394.164 396.117 393.926C399.139 393.767 402.48 394.562 404.309 396.947C406.059 399.174 405.98 402.434 404.787 404.978Z" fill="#A67B35"/>
<path d="M337.654 195.293H334.472C334.472 194.577 334.472 193.862 334.472 193.146C334.472 189.091 334.392 185.035 334.313 180.98C334.313 179.867 334.313 178.754 334.233 177.72C334.154 172.869 333.995 167.939 333.836 163.089C333.836 162.135 333.756 161.18 333.756 160.147C333.677 157.364 333.518 154.501 333.438 151.718C333.995 151.956 334.552 152.195 335.108 152.434C335.586 152.195 336.142 151.956 336.62 151.797C336.699 154.103 336.779 156.409 336.938 158.636C336.938 159.59 337.017 160.624 337.017 161.578C337.176 166.19 337.336 170.802 337.415 175.414C337.415 176.527 337.495 177.64 337.495 178.754C337.574 183.525 337.654 188.216 337.654 192.987C337.574 193.782 337.654 194.498 337.654 195.293Z" fill="#B38F56"/>
<path d="M337.256 182.968L335.586 185.671C335.188 185.433 334.711 185.115 334.313 184.876C310.769 170.643 282.531 166.031 256.601 172.154C229.477 178.515 206.013 196.724 193.684 220.818C179.923 247.615 180.321 279.501 180.639 307.65L182.548 468.194C179.764 463.105 178.809 457.062 179.843 451.416C179.605 451.973 179.366 452.529 179.127 453.086L177.378 307.809C177.059 279.342 176.662 246.979 190.741 219.466C203.467 194.577 227.807 175.732 255.805 169.132C281.895 162.93 310.291 167.383 334.154 181.219C334.313 181.298 334.472 181.378 334.631 181.457C335.427 181.934 336.142 182.332 336.938 182.809C337.017 182.888 337.176 182.968 337.256 182.968Z" fill="#B38F56"/>
<path d="M335.108 161.657V161.737L334.313 164.759L333.836 164.679C312.519 159.192 289.77 153.865 266.464 153.865H266.385C244.59 153.865 222.319 160.624 201.956 173.426C145.959 208.572 149.458 283 153.913 377.148C155.106 402.831 156.379 429.311 156.538 457.062C156.14 455.631 155.901 454.199 155.901 452.768C154.39 456.505 154.072 460.72 154.947 464.616H153.356C153.356 434.161 152.004 405.217 150.652 377.307C146.118 282.046 142.618 206.823 200.206 170.722C221.046 157.602 243.954 150.684 266.305 150.684H266.385C289.77 150.684 312.36 155.932 333.677 161.339C334.154 161.419 334.631 161.498 335.108 161.657C335.029 161.657 335.108 161.657 335.108 161.657Z" fill="#B38F56"/>
<path d="M493.953 470.103C494.43 469.466 494.828 468.671 495.146 467.797V470.262C494.669 470.262 494.35 470.182 493.953 470.103Z" fill="#B38F56"/>
<path d="M496.896 305.344L495.225 460.163C494.669 457.221 493.555 454.358 492.362 451.575C493.078 455.233 492.919 458.97 491.964 462.549L493.714 305.344C494.032 279.74 494.35 250.637 483.692 225.43C472.397 198.633 447.978 177.004 419.979 169.052C392.537 161.26 361.039 166.428 337.415 182.57C337.256 182.65 337.097 182.809 336.938 182.888C336.62 183.047 336.381 183.286 336.063 183.524L334.631 181.537L334.154 180.9C335.188 180.185 336.222 179.469 337.256 178.753C361.675 162.771 392.617 158 420.695 165.951C450.046 174.301 474.624 196.088 486.476 224.158C497.532 250 497.214 279.422 496.896 305.344Z" fill="#B38F56"/>
<path d="M516.702 454.04C516.543 453.563 516.383 453.166 516.224 452.688C516.224 453.961 516.065 455.233 515.747 456.505L514.156 460.481L512.804 460.322C519.088 404.342 521.156 347.408 518.929 291.19C518.133 271.072 516.702 247.694 510.418 225.43C503.736 201.972 492.123 182.809 476.772 169.927C459.352 155.296 435.172 147.185 408.684 147.185H408.048C386.651 147.265 363.425 152.433 337.097 162.93C336.699 163.089 336.301 163.248 335.904 163.407L335.188 161.657V161.578L334.711 160.465C335.506 160.147 336.222 159.829 337.017 159.59C363.346 149.253 386.651 144.164 408.127 144.084H408.764C435.967 144.084 460.863 152.433 478.919 167.542C494.748 180.821 506.679 200.541 513.6 224.635C520.042 247.138 521.474 270.754 522.27 291.111C524.258 345.261 522.429 400.048 516.702 454.04Z" fill="#B38F56"/>
<g opacity="0.2588">
<g opacity="0.2588">
<path opacity="0.2588" d="M212.455 418.576C211.421 422.393 211.342 426.607 212.376 430.742C210.626 426.925 209.751 422.631 210.069 418.258L212.455 418.576Z" fill="#735434"/>
</g>
<g opacity="0.2588">
<path opacity="0.2588" d="M226.057 430.026C226.375 436.547 227.409 442.987 229.239 449.349C226.614 443.306 224.784 436.865 223.671 430.265L226.057 430.026Z" fill="#735434"/>
</g>
<g opacity="0.2588">
<path opacity="0.2588" d="M240.215 423.267C239.659 427.084 240.136 431.14 241.886 434.877C239.499 431.617 237.988 427.482 237.829 423.188L240.215 423.267Z" fill="#735434"/>
</g>
<g opacity="0.2588">
<path opacity="0.2588" d="M252.226 447.361C251.749 453.484 252.703 459.925 255.249 465.729C252.067 460.243 250.158 453.881 249.84 447.281L252.226 447.361Z" fill="#735434"/>
</g>
<g opacity="0.2588">
<path opacity="0.2588" d="M262.328 423.426C261.93 427.879 262.328 432.412 263.441 436.865C261.532 432.73 260.339 428.118 259.942 423.426H262.328Z" fill="#735434"/>
</g>
<g opacity="0.2588">
<path opacity="0.2588" d="M274.418 415.713C274.02 420.166 274.418 424.699 275.532 429.152C273.623 425.017 272.43 420.405 272.032 415.713H274.418Z" fill="#735434"/>
</g>
<g opacity="0.2588">
<path opacity="0.2588" d="M281.736 429.072C282.611 436.388 284.6 443.544 287.622 450.383C283.884 443.942 281.1 436.865 279.35 429.47L281.736 429.072Z" fill="#735434"/>
</g>
<g opacity="0.2588">
<path opacity="0.2588" d="M275.532 462.628L277.441 473.124L273.225 463.264L275.532 462.628Z" fill="#735434"/>
</g>
<g opacity="0.2588">
<path opacity="0.2588" d="M301.701 436.547L304.564 450.78L299.394 437.262L301.701 436.547Z" fill="#735434"/>
</g>
<g opacity="0.2588">
<path opacity="0.2588" d="M301.383 462.946L302.576 473.919L298.997 463.423L301.383 462.946Z" fill="#735434"/>
</g>
<g opacity="0.2588">
<path opacity="0.2588" d="M316.177 477.577L317.371 488.551L313.871 478.054L316.177 477.577Z" fill="#735434"/>
</g>
<g opacity="0.2588">
<path opacity="0.2588" d="M383.947 435.91L381.163 445.293L381.561 435.592L383.947 435.91Z" fill="#735434"/>
</g>
<g opacity="0.2588">
<path opacity="0.2588" d="M399.298 427.959L397.946 434.241L396.912 427.879L399.298 427.959Z" fill="#735434"/>
</g>
<g opacity="0.2588">
<path opacity="0.2588" d="M405.025 416.747L403.673 423.029L402.639 416.667L405.025 416.747Z" fill="#735434"/>
</g>
<g opacity="0.2588">
<path opacity="0.2588" d="M405.025 416.747L403.673 423.029L402.639 416.667L405.025 416.747Z" fill="#735434"/>
</g>
<g opacity="0.2588">
<path opacity="0.2588" d="M416.161 423.665C416.241 428.674 415.604 433.684 414.173 438.296C414.809 433.445 414.65 428.595 413.775 423.903L416.161 423.665Z" fill="#735434"/>
</g>
<g opacity="0.2588">
<path opacity="0.2588" d="M434.376 419.61C435.092 424.937 434.376 430.265 432.467 435.036C433.66 430.026 433.422 424.778 432.069 420.087L434.376 419.61Z" fill="#735434"/>
</g>
<g opacity="0.2588">
<path opacity="0.2588" d="M433.581 444.339L431.433 453.325L431.194 444.101L433.581 444.339Z" fill="#735434"/>
</g>
<g opacity="0.2588">
<path opacity="0.2588" d="M460.704 422.313C460.704 426.766 459.75 431.139 458 434.956C459.034 430.821 459.114 426.528 458.318 422.552L460.704 422.313Z" fill="#735434"/>
</g>
<g opacity="0.2588">
<path opacity="0.2588" d="M451.239 419.451L449.25 430.742L448.853 419.292L451.239 419.451Z" fill="#735434"/>
</g>
<g opacity="0.2588">
<path opacity="0.2588" d="M445.114 446.168L442.728 451.734L442.808 445.612L445.114 446.168Z" fill="#735434"/>
</g>
<g opacity="0.2588">
<path opacity="0.2588" d="M328.427 469.546C327.791 473.363 328.109 477.418 329.461 481.235C327.393 477.736 326.2 473.681 326.041 469.387L328.427 469.546Z" fill="#735434"/>
</g>
<g opacity="0.2588">
<path opacity="0.2588" d="M351.971 436.547L350.619 445.373L349.585 436.467L351.971 436.547Z" fill="#735434"/>
</g>
<g opacity="0.2588">
<path opacity="0.2588" d="M343.699 452.052L342.347 460.958L341.313 452.052H343.699Z" fill="#735434"/>
</g>
<g opacity="0.2588">
<path opacity="0.2588" d="M363.743 444.021C363.664 447.361 362.868 450.542 361.596 453.404C362.073 450.303 361.993 447.122 361.357 444.18L363.743 444.021Z" fill="#735434"/>
</g>
<g opacity="0.2588">
<g opacity="0.2588">
<path opacity="0.2588" d="M379.493 461.038C379.174 465.729 377.743 470.182 375.436 474.078C377.027 469.864 377.584 465.332 377.106 461.038H379.493Z" fill="#735434"/>
</g>
<g opacity="0.2588">
<path opacity="0.2588" d="M395.56 448.236C395.56 454.358 394.049 460.402 391.265 465.65C393.333 460.084 393.969 454.04 393.174 448.395L395.56 448.236Z" fill="#735434"/>
</g>
<g opacity="0.2588">
<path opacity="0.2588" d="M414.729 456.028C414.491 459.447 413.695 462.708 412.343 465.65C412.9 462.469 412.9 459.209 412.343 456.108L414.729 456.028Z" fill="#735434"/>
</g>
<g opacity="0.2588">
<path opacity="0.2588" d="M325.325 445.134L324.45 451.257L322.939 445.214L325.325 445.134Z" fill="#735434"/>
</g>
<g opacity="0.2588">
<path opacity="0.2588" d="M358.175 467.479C357.698 472.568 355.71 477.418 352.607 481.235C355.073 476.941 356.028 472.091 355.789 467.399L358.175 467.479Z" fill="#735434"/>
</g>
</g>
<g opacity="0.2588">
<path opacity="0.2588" d="M343.619 477.657L341.313 490.3L341.233 477.418L343.619 477.657Z" fill="#735434"/>
</g>
</g>
<path d="M476.613 285.624V371.025C476.533 375.955 476.454 380.805 476.374 385.735C456.568 389.711 437.399 391.461 418.468 389.95C405.423 388.598 393.969 381.919 385.299 372.933C376.629 363.948 370.584 352.736 365.573 341.286C362.789 334.765 360.164 328.006 355.391 322.758C347.755 314.409 323.336 313.137 314.507 322.758C309.735 328.006 307.189 334.765 304.326 341.286C299.394 352.736 293.27 363.948 284.599 372.933C275.929 381.919 264.475 388.678 251.431 389.95C233.216 391.381 214.683 389.791 195.672 386.133C195.593 381.203 195.433 376.273 195.354 371.343C194.956 342.717 195.036 314.091 195.354 285.544C195.354 284.511 195.354 283.397 195.354 282.364C195.433 279.183 195.433 276.002 195.513 272.901C209.035 271.231 222.557 269.8 236.159 270.277C252.624 270.754 269.328 272.822 283.725 280.932C291.44 285.306 295.656 290.474 304.962 296.438C316.098 303.515 354.357 302.879 364.539 296.438C373.845 290.474 378.061 285.306 385.776 280.932C400.173 272.822 416.877 270.754 433.342 270.277C447.66 269.88 461.897 271.39 476.135 273.219C476.215 276.32 476.294 279.422 476.294 282.443C476.613 283.397 476.613 284.511 476.613 285.624Z" fill="#4D4949"/>
<path d="M280.861 359.495C270.521 371.025 260.26 377.466 239.34 377.466C238.465 377.466 237.59 377.466 236.795 377.466C233.295 377.386 229.795 377.227 226.296 376.909C222.796 376.591 219.296 376.193 215.876 375.637C209.035 374.603 202.274 373.172 195.593 371.422V285.465C206.569 283.795 216.751 282.523 227.091 282.284C230.67 282.205 234.329 282.205 237.988 282.364C241.568 282.523 245.306 282.841 249.044 283.238C249.919 283.318 250.794 283.477 251.669 283.557C264.794 285.385 274.895 288.964 282.213 293.814C284.838 295.564 287.145 297.472 289.054 299.46C291.201 301.686 292.951 304.072 294.224 306.616C302.496 321.963 296.372 342.081 280.861 359.495Z" fill="#6E6E6E"/>
<path d="M476.613 285.624V371.025C465.079 374.046 453.387 376.273 441.614 377.068C438.353 377.307 435.092 377.386 431.751 377.386C431.274 377.386 430.797 377.386 430.32 377.386C426.342 377.307 422.843 376.989 419.581 376.512C407.65 374.603 399.855 369.594 392.537 361.96C391.742 361.165 391.026 360.37 390.231 359.495C388.322 357.428 386.651 355.281 385.06 353.134C383.231 350.669 381.64 348.124 380.208 345.58C364.777 318.146 373.288 289.043 422.127 283.238C425.308 282.841 428.49 282.602 431.513 282.443C435.331 282.205 438.99 282.205 442.648 282.284C447.341 282.364 452.034 282.682 456.648 283.079C463.17 283.636 469.693 284.59 476.613 285.624Z" fill="#6E6E6E"/>
<path d="M350.699 364.743C340.915 366.413 329.779 365.141 319.359 364.743C325.245 366.731 335.745 374.285 335.745 374.285C335.745 374.285 344.176 368.321 350.699 364.743Z" fill="#DEB587"/>
<path d="M352.051 365.538C342.267 367.208 331.131 365.936 320.711 365.538C326.597 367.526 337.097 375.08 337.097 375.08C337.097 375.08 345.528 369.116 352.051 365.538Z" fill="#DEB587"/>
<path d="M250.397 508.668C247.772 513.042 246.34 520.596 245.783 527.355C228.205 541.27 207.922 550.255 186.763 553.754C212.296 546.757 235.284 530.535 250.397 508.668Z" fill="#FFD4A3"/>
<path d="M187.559 513.757C184.536 508.589 180.877 503.738 176.741 499.365C179.764 495.787 183.105 492.447 186.604 489.266C187.32 497.456 187.638 505.567 187.559 513.757Z" fill="#FFD4A3"/>
<path d="M260.976 507.555C260.976 515.507 260.976 523.617 262.885 531.33C264.794 539.044 268.85 546.598 275.373 551.13C279.588 554.072 284.679 555.663 289.69 556.776C298.997 558.923 308.621 559.797 318.086 559.4C320.393 559.32 322.859 559.082 324.847 557.81C328.347 555.504 328.904 550.653 329.063 546.598C331.29 550.017 330.495 554.947 327.87 558.048C325.245 561.149 321.03 562.74 316.973 563.137C312.916 563.535 308.78 562.819 304.644 562.183C300.19 561.467 295.735 560.672 291.201 559.956C285.315 559.002 279.191 557.969 274.02 554.867C266.544 550.494 261.93 542.304 259.862 533.955C257.794 525.605 258.271 516.779 260.976 507.555Z" fill="#F2D0A8"/>
<path d="M331.688 605.52C332.165 603.929 333.915 602.816 335.586 602.975C337.256 603.134 338.688 604.565 338.926 606.235C336.699 606.076 334.472 605.917 331.688 605.52Z" fill="#DEB587"/>
<path d="M470.647 550.415L462.136 547.552C449.41 542.86 437.319 536.022 426.343 527.355C426.343 530.058 426.104 532.841 425.786 535.545C425.706 527.752 424.354 516.063 420.854 510.179C433.104 527.911 450.682 541.986 470.647 550.415Z" fill="#FFD9AE"/>
<path d="M496.18 499.365C496.259 499.365 496.259 499.365 496.18 499.365C491.248 503.659 486.874 508.509 483.215 513.757C483.771 505.726 484.726 497.695 486.078 489.743" fill="#FFD4A3"/>
<path d="M409.321 507.555C409.321 515.507 409.321 523.617 407.412 531.33C405.503 539.044 401.446 546.598 394.924 551.13C390.708 554.072 385.617 555.663 380.606 556.776C371.3 558.923 361.675 559.797 352.21 559.4C349.903 559.32 347.437 559.082 345.449 557.81C341.949 555.504 341.392 550.653 341.233 546.598C339.006 550.017 339.801 554.947 342.426 558.048C345.051 561.149 349.267 562.74 353.323 563.137C357.38 563.535 361.516 562.819 365.652 562.183C370.107 561.467 374.561 560.672 379.095 559.956C384.981 559.002 391.106 557.969 396.276 554.867C403.753 550.494 408.366 542.304 410.434 533.955C412.502 525.605 412.025 516.779 409.321 507.555Z" fill="#F2D0A8"/>
<path d="M375.674 249.762C369.232 242.367 353.244 229.485 340.915 227.179C332.404 225.589 323.495 228.292 316.098 232.904C308.701 237.516 302.655 243.798 296.531 250.08C304.803 263.598 320.393 272.345 336.301 272.345C352.21 272.345 365.97 265.268 375.674 249.762Z" fill="white"/>
<path opacity="0.251" d="M282.213 293.894L215.796 375.557C208.956 374.524 202.195 373.092 195.513 371.343V352.736L251.669 283.716C264.794 285.465 274.895 289.043 282.213 293.894Z" fill="white"/>
<path opacity="0.251" d="M294.304 306.696L236.795 377.466C233.295 377.386 229.795 377.227 226.296 376.909L289.133 299.619C291.201 301.766 292.951 304.151 294.304 306.696Z" fill="white"/>
<path opacity="0.251" d="M237.988 282.364L195.513 334.606V321.088L227.011 282.284C230.67 282.205 234.25 282.205 237.988 282.364Z" fill="white"/>
<path opacity="0.251" d="M476.613 285.624V306.298L419.581 376.512C407.65 374.603 399.855 369.594 392.537 361.96L456.648 283.079C463.17 283.636 469.693 284.59 476.613 285.624Z" fill="white"/>
<path opacity="0.251" d="M476.613 320.452V333.97L441.614 377.068C438.353 377.307 435.092 377.386 431.751 377.386C431.274 377.386 430.797 377.386 430.32 377.386L476.613 320.452Z" fill="white"/>
<path opacity="0.251" d="M442.648 282.205L385.06 353.054C383.231 350.589 381.64 348.045 380.208 345.5L431.513 282.364C435.251 282.205 438.99 282.205 442.648 282.205Z" fill="white"/>
<path opacity="0.5608" d="M350.38 195.372C327.711 195.691 305.28 197.758 283.406 203.404C249.999 211.991 217.785 230.042 197.342 257.475C198.058 253.658 199.013 250 200.365 246.422C205.774 232.586 217.069 221.613 230.034 214.377C242.999 207.141 257.635 203.324 272.271 200.621C292.951 196.804 314.109 194.975 335.108 195.293C340.04 195.213 345.131 195.213 350.38 195.372Z" fill="#FFD4A3"/>
<path d="M335.745 220.261L321.984 0L350.699 0.556617L335.745 220.261Z" fill="url(#paint1_linear_127_242)"/>
<path d="M315.621 216.842L275.929 164.997L286.031 159.67L315.621 216.842Z" fill="url(#paint2_linear_127_242)"/>
<path d="M301.542 228.69L132.914 123.092L141.266 107.109L301.542 228.69Z" fill="url(#paint3_linear_127_242)"/>
<path d="M288.577 235.369L247.215 222.567L250.556 213.661L288.577 235.369Z" fill="url(#paint4_linear_127_242)"/>
<path d="M284.918 245.229L78.9847 223.601L81.8482 203.881L284.918 245.229Z" fill="url(#paint5_linear_127_242)"/>
<path d="M356.585 216.842L396.276 164.997L386.174 159.67L356.585 216.842Z" fill="url(#paint6_linear_127_242)"/>
<path d="M370.663 228.69L539.291 123.092L531.019 107.109L370.663 228.69Z" fill="url(#paint7_linear_127_242)"/>
<path d="M383.629 235.369L424.99 222.567L421.729 213.661L383.629 235.369Z" fill="url(#paint8_linear_127_242)"/>
<path d="M387.288 245.229L593.3 223.601L590.357 203.881L387.288 245.229Z" fill="url(#paint9_linear_127_242)"/>
<path d="M335.506 271.868C347.718 271.868 357.619 261.971 357.619 249.762C357.619 237.553 347.718 227.656 335.506 227.656C323.294 227.656 313.394 237.553 313.394 249.762C313.394 261.971 323.294 271.868 335.506 271.868Z" fill="white"/>
<path d="M356.028 241.413C356.266 242.049 356.266 242.049 355.71 242.446C353.562 243.878 351.335 245.229 349.187 246.661C349.108 246.74 349.028 246.74 348.949 246.82C348.949 246.343 348.949 245.866 348.949 245.388C348.869 243.321 348.312 241.333 347.119 239.663C345.767 237.755 343.858 236.642 341.472 236.165C340.915 236.085 340.279 236.005 339.642 236.005C337.733 236.005 335.824 236.005 333.915 236.005C333.836 236.005 333.756 236.005 333.597 236.005C333.597 237.993 333.597 239.981 333.597 241.969C333.12 241.89 332.722 241.81 332.324 241.731C331.927 241.651 331.529 241.651 331.131 241.651C329.063 241.651 326.995 241.651 324.927 241.651C324.848 241.651 324.848 241.651 324.688 241.651C324.688 241.731 324.688 241.89 324.688 241.969C324.688 248.649 324.688 255.408 324.688 262.087C324.688 262.246 324.688 262.325 324.529 262.405C322.939 263.439 321.427 264.393 319.757 265.427C319.28 264.95 318.802 264.472 318.405 263.916C316.098 261.133 314.507 258.032 313.791 254.533C313.553 253.579 313.473 252.545 313.314 251.591C313.234 250.875 313.234 250.239 313.234 249.523C313.314 246.263 313.95 243.162 315.382 240.22C316.893 237.119 318.961 234.495 321.586 232.348C323.177 231.075 324.927 230.042 326.836 229.247C328.904 228.372 331.131 227.815 333.358 227.656C336.222 227.418 339.085 227.656 341.869 228.531C345.131 229.565 347.915 231.234 350.46 233.54C353.005 235.846 354.755 238.47 356.028 241.413Z" fill="#3FDB61"/>
<path d="M356.505 256.68C355.948 258.35 355.232 259.86 354.357 261.371C351.653 265.665 347.994 268.687 343.301 270.516C341.631 271.152 339.881 271.549 338.051 271.788C337.176 271.867 336.381 271.947 335.506 271.947C330.336 271.947 325.643 270.277 321.586 267.017C321.507 266.937 321.348 266.858 321.189 266.699C321.825 266.301 322.461 265.904 323.098 265.506C324.052 264.87 325.086 264.234 326.041 263.598C326.2 263.518 326.359 263.439 326.518 263.439C327.87 263.439 329.143 263.439 330.495 263.439C331.609 263.439 332.722 263.359 333.836 262.962C336.381 262.166 338.131 260.497 339.165 258.032C339.245 257.873 339.324 257.793 339.563 257.793C341.631 257.793 343.619 257.316 345.29 256.044C347.119 254.692 348.153 252.783 348.63 250.637C348.71 250.159 348.79 249.603 348.869 249.046C348.869 248.967 349.028 248.808 349.108 248.728C351.176 247.376 353.323 246.025 355.391 244.673C355.869 244.355 356.266 244.116 356.823 243.798C357.937 248.092 357.937 252.386 356.505 256.68Z" fill="#4D4D4D"/>
<path d="M340.04 254.771C340.119 253.022 340.199 251.273 339.96 249.603C339.722 248.092 339.245 246.74 338.449 245.468C337.733 244.355 336.779 243.56 335.665 242.844C335.506 242.764 335.427 242.685 335.427 242.446C335.427 240.856 335.427 239.186 335.427 237.596C335.506 237.596 335.586 237.596 335.665 237.596C337.097 237.596 338.529 237.596 339.96 237.596C343.063 237.675 345.528 239.425 346.562 242.367C346.96 243.401 347.119 244.514 347.119 245.627C347.119 246.422 347.119 247.138 347.119 247.933C347.119 249.523 346.801 251.034 346.085 252.465C344.972 254.453 343.301 255.726 340.994 256.044C340.676 256.123 340.358 256.123 340.119 256.123C340.04 256.123 339.96 256.123 339.881 256.123C339.881 255.726 339.96 255.249 340.04 254.771Z" fill="#3FDB61"/>
<path d="M326.597 256.123C326.597 251.829 326.597 247.535 326.597 243.241C326.677 243.241 326.677 243.241 326.756 243.241C328.347 243.241 329.938 243.241 331.449 243.241C332.086 243.241 332.722 243.48 333.358 243.56C333.518 243.56 333.597 243.719 333.597 243.878C333.597 246.025 333.597 248.171 333.597 250.318C333.597 252.704 333.597 255.01 333.597 257.395C333.597 257.475 333.597 257.554 333.597 257.713C334.87 257.713 336.063 257.713 337.415 257.713C337.176 258.111 337.017 258.509 336.779 258.827C335.506 260.576 333.756 261.61 331.609 261.769C329.938 261.848 328.347 261.769 326.677 261.769C326.597 259.94 326.597 258.032 326.597 256.123Z" fill="#40DB62"/>
<path d="M338.21 250C338.21 250.319 338.29 250.637 338.29 250.955C338.29 252.227 338.29 253.42 338.21 254.692C338.21 255.169 338.051 255.567 337.972 256.044C337.972 256.123 337.892 256.203 337.813 256.203C337.017 256.203 336.222 256.203 335.427 256.203C335.427 252.386 335.427 248.569 335.427 244.752C337.097 246.104 337.892 247.933 338.21 250Z" fill="#40DB62"/>
<path d="M74.0531 382.237C73.0191 378.42 71.3487 374.842 69.2011 371.581C65.9399 366.651 61.5651 362.517 56.2358 359.495C47.4863 354.565 37.305 353.293 27.6009 355.996C17.8968 358.7 9.86315 364.982 4.85203 373.728C-0.0795401 382.475 -1.3522 392.653 1.35221 402.354C4.05662 412.055 10.3404 420.166 19.09 425.096C20.999 426.13 22.908 427.084 24.976 427.8C32.2143 430.424 40.1685 430.742 47.7249 428.595C57.429 425.891 65.5422 419.61 70.4738 410.863C75.4849 402.116 76.7576 391.938 74.0531 382.237Z" fill="#FFED9E"/>
<path d="M11.454 370.627C11.7721 369.753 12.3289 368.56 11.9312 367.606C11.6926 366.969 10.9767 366.651 10.3404 366.97C10.1813 367.049 10.1813 367.208 10.1813 367.288C8.11323 368.957 6.44286 371.025 5.24973 373.331C4.77249 374.206 4.45432 375.239 5.17019 376.114C5.72698 376.909 6.76102 376.909 7.4769 376.432C8.43139 375.875 9.14727 374.842 9.7836 373.967C10.4199 372.933 10.9767 371.82 11.454 370.627ZM9.7836 371.9C9.30635 372.615 8.8291 373.331 8.27231 373.967C7.79506 374.444 7.31781 375.16 6.68148 375.478C5.80653 375.875 5.88607 374.683 6.04515 374.126C6.28377 373.331 6.68148 372.536 7.07919 371.741C7.95415 370.15 8.98819 368.719 10.2608 367.447C10.3404 367.526 10.4995 367.526 10.579 367.526C11.1358 367.288 11.3744 368.083 11.2949 368.48C11.2153 368.878 11.0563 369.355 10.8972 369.673C10.579 370.468 10.2608 371.184 9.7836 371.9Z" fill="#E8D26F"/>
<path d="M73.6554 386.292C73.6554 386.133 73.3373 386.133 73.3373 386.372C73.4963 387.644 73.2577 389.075 72.5418 390.109C71.4283 391.62 70.5533 388.439 70.4738 387.723C70.3147 386.531 70.3942 385.338 70.7124 384.225C70.8715 383.589 71.1896 382.793 71.9851 383.191C72.6214 383.509 72.7805 384.304 73.1782 384.861C73.1782 384.94 73.2577 384.861 73.2577 384.861C73.4168 383.429 71.826 381.362 70.3147 382.555C69.5988 383.111 69.3602 384.225 69.2011 385.099C69.042 386.054 68.9625 387.087 69.1216 388.041C69.3602 389.552 70.3147 392.494 72.4623 391.62C74.2918 390.825 73.9736 387.723 73.6554 386.292Z" fill="#E8D26F"/>
<path d="M70.0761 383.111C69.8374 382.793 69.4397 382.634 69.042 382.396C68.7239 382.157 68.3262 381.919 67.9284 381.68C67.8489 381.68 67.8489 381.68 67.8489 381.76C68.0875 382.078 68.4057 382.396 68.6443 382.714C68.9625 383.032 69.2011 383.429 69.5193 383.668C69.9965 383.986 70.3942 383.429 70.0761 383.111Z" fill="#E8D26F"/>
<path d="M69.8374 384.463C69.2011 384.304 68.6443 384.225 68.1671 383.748C68.1671 383.668 68.008 383.748 68.0875 383.827C68.4057 384.543 69.042 385.099 69.7579 385.099C70.1556 385.02 70.1556 384.543 69.8374 384.463Z" fill="#E8D26F"/>
<path d="M70.1556 390.506C69.9965 390.745 69.8374 390.983 69.6784 391.222C69.5193 391.54 69.2806 391.779 69.042 392.017C69.042 392.017 69.042 392.097 69.1216 392.097C69.3602 391.858 69.5988 391.62 69.917 391.461C70.1556 391.302 70.4738 391.143 70.6329 390.984C71.1101 390.586 70.4738 390.029 70.1556 390.506Z" fill="#E8D26F"/>
<path d="M69.2806 389.393C68.7239 389.791 68.2466 390.268 67.8489 390.824C67.7694 390.904 67.9284 390.984 68.008 390.904C68.4057 390.427 68.9625 390.109 69.5193 389.95C70.0761 389.87 69.6784 389.075 69.2806 389.393Z" fill="#E8D26F"/>
<path d="M24.3397 411.896C23.7034 411.419 22.5898 410.704 21.7148 410.783C21.2376 410.783 21.0785 411.578 21.6353 411.658C22.1125 411.737 22.5102 411.658 22.9875 411.658C23.4647 411.658 23.8624 411.737 24.3397 411.896C24.3397 411.976 24.3397 411.896 24.3397 411.896Z" fill="#E8D26F"/>
<path d="M25.2942 410.942C24.6579 410.386 23.6238 409.75 22.8284 409.591C22.033 409.431 21.8739 410.624 22.6693 410.704C23.1466 410.783 23.5443 410.704 24.0215 410.783C24.4192 410.863 24.8169 411.022 25.2146 411.101C25.2942 411.101 25.3737 411.022 25.2942 410.942Z" fill="#E8D26F"/>
<path d="M24.4192 409.113C23.8625 408.875 23.067 408.398 22.4307 408.557C22.033 408.716 22.1125 409.272 22.5102 409.272C22.8284 409.272 23.067 409.193 23.3852 409.113C23.7034 409.034 24.0215 409.113 24.3397 409.193C24.4192 409.193 24.4988 409.113 24.4192 409.113Z" fill="#E8D26F"/>
<path d="M17.5787 399.889C17.5787 399.81 17.4991 399.889 17.4991 399.889C17.4991 400.446 17.4196 400.923 17.181 401.321C16.9423 401.718 16.5446 401.957 16.3856 402.354C16.2265 402.672 16.6242 403.229 16.9423 402.911C17.7378 402.354 17.7378 400.764 17.5787 399.889Z" fill="#E8D26F"/>
<path d="M18.5332 401.798C18.6127 401.321 18.6127 400.923 18.6923 400.446C18.6923 400.366 18.6127 400.366 18.5332 400.446C18.3741 400.923 18.215 401.321 17.9764 401.639C17.7378 401.957 17.4196 402.275 17.2605 402.593C16.9423 403.229 17.8173 403.627 18.215 403.15C18.4536 402.752 18.4536 402.275 18.5332 401.798Z" fill="#E8D26F"/>
<path d="M19.0104 409.749C17.4196 408.398 13.7607 405.535 16.0674 403.229C16.1469 403.15 16.0674 403.07 15.9878 403.15C14.9538 404.024 14.4765 405.535 14.9538 406.807C15.5901 408.477 17.181 409.352 18.6922 410.068C18.9309 410.227 19.249 409.988 19.0104 409.749Z" fill="#E8D26F"/>
<path d="M14.7947 367.924C14.3175 368.083 13.7607 368.162 13.2039 368.162C12.7266 368.162 12.2494 368.083 11.7721 368.083C11.5335 368.083 11.454 368.56 11.6926 368.56C12.7266 368.798 13.8402 368.401 14.7947 367.924C14.8743 368.003 14.7947 367.924 14.7947 367.924Z" fill="#E8D26F"/>
<path d="M14.1584 369.037C13.7607 369.117 13.4425 369.117 13.0448 369.117C12.6471 369.117 12.3289 369.037 11.9312 369.117C11.6926 369.196 11.6926 369.514 11.9312 369.594C12.3289 369.673 12.6471 369.514 13.0448 369.435C13.4425 369.355 13.8402 369.196 14.2379 369.117C14.2379 369.117 14.2379 369.037 14.1584 369.037Z" fill="#E8D26F"/>
<path d="M5.64744 378.818C5.72698 378.34 5.80652 377.784 5.80652 377.307C5.80652 376.83 5.80652 376.273 5.5679 375.796C5.40881 375.398 4.93156 375.716 4.93156 376.034C5.01111 376.512 5.24973 376.909 5.32927 377.307C5.40881 377.784 5.48836 378.261 5.48836 378.738C5.5679 378.818 5.64744 378.818 5.64744 378.818Z" fill="#E8D26F"/>
<path d="M7.63598 378.022C7.55644 377.704 7.4769 377.307 7.31781 376.989C7.23827 376.671 7.07919 376.352 6.84056 376.114C6.60194 375.796 6.12469 376.273 6.36331 376.591C6.5224 376.83 6.76102 376.989 6.99965 377.148C7.23827 377.386 7.39735 377.704 7.4769 378.022C7.55644 378.102 7.63598 378.102 7.63598 378.022Z" fill="#E8D26F"/>
<path d="M9.46544 375.955C9.22681 375.716 8.98819 375.478 8.74956 375.239C8.51094 374.921 8.11323 375.478 8.4314 375.637C8.74956 375.796 8.98819 375.955 9.30635 376.114C9.46544 376.193 9.54498 376.034 9.46544 375.955Z" fill="#E8D26F"/>
<path d="M52.8951 365.061C52.736 364.664 52.6565 364.266 52.5769 363.868C52.4974 363.471 52.4974 362.994 52.4179 362.596C52.3383 362.199 51.702 362.278 51.702 362.676C51.702 363.073 51.8611 363.55 52.0997 363.948C52.2588 364.425 52.4974 364.743 52.8951 365.061C52.8951 365.141 52.8951 365.061 52.8951 365.061Z" fill="#E8D26F"/>
<path d="M51.4633 365.141C51.4633 364.902 51.3838 364.664 51.4633 364.425C51.5429 364.186 51.6224 364.027 51.6224 363.789C51.6224 363.55 51.2247 363.471 51.1452 363.63C50.9066 364.107 51.1452 364.743 51.3043 365.141C51.3043 365.22 51.4633 365.22 51.4633 365.141Z" fill="#E8D26F"/>
<path d="M47.4067 361.483C46.8499 361.403 46.3727 361.403 45.8954 361.165C45.8159 361.165 45.7364 361.244 45.8159 361.244C46.2932 361.562 46.8499 361.801 47.3272 361.801C47.5658 361.88 47.5658 361.483 47.4067 361.483Z" fill="#E8D26F"/>
<path d="M47.3272 362.119C47.0886 362.119 46.8499 362.198 46.6113 362.198C46.3727 362.198 46.1341 362.278 45.8159 362.278C45.7364 362.278 45.7364 362.437 45.8159 362.437C46.0545 362.437 46.2931 362.437 46.5318 362.437C46.7704 362.437 47.009 362.517 47.2476 362.437C47.5658 362.437 47.5658 362.119 47.3272 362.119Z" fill="#E8D26F"/>
<path d="M67.2126 415.554C67.4512 414.202 67.7694 413.01 68.4057 411.817C68.4852 411.737 68.3262 411.578 68.2466 411.737C67.5307 412.851 66.8149 414.123 66.5762 415.475C66.4967 415.793 67.133 415.952 67.2126 415.554Z" fill="#E8D26F"/>
<path d="M66.4967 413.964C66.5762 413.725 66.4967 413.407 66.5762 413.169C66.6558 412.93 66.7353 412.612 66.8149 412.373C66.8149 412.294 66.7353 412.214 66.6558 412.294C66.4967 412.533 66.4172 412.851 66.2581 413.169C66.1785 413.407 66.0194 413.646 66.0194 413.964C65.8604 414.202 66.4171 414.282 66.4967 413.964Z" fill="#E8D26F"/>
<path d="M7.63597 408.239C7.23827 407.443 7.15872 406.569 6.9201 405.694C6.68148 404.899 6.12469 404.263 5.80652 403.468C5.80652 403.388 5.64744 403.388 5.64744 403.468C5.64744 404.342 5.48835 405.297 5.80652 406.092C6.20423 406.966 6.84056 407.602 7.39735 408.398C7.55643 408.477 7.71552 408.398 7.63597 408.239Z" fill="#E8D26F"/>
<path d="M59.7357 366.174C59.5766 365.697 59.2584 365.3 58.8607 365.061C58.3835 364.743 57.9062 364.823 57.3494 364.743C57.2699 364.743 57.2699 364.823 57.3494 364.823C57.7471 365.061 57.9858 365.459 58.3039 365.777C58.6221 366.095 58.8607 366.333 59.1789 366.572C59.4175 366.81 59.8152 366.492 59.7357 366.174Z" fill="#E8D26F"/>
<path d="M22.033 390.984C21.9535 390.825 21.8739 390.665 21.7148 390.665C21.7148 390.586 21.7148 390.506 21.7944 390.427C21.7944 390.347 21.7148 390.347 21.7148 390.427C21.6353 390.506 21.6353 390.586 21.5557 390.665C21.3171 390.586 20.999 390.745 20.9194 391.063C20.7603 391.54 20.6012 391.938 20.3626 392.415C20.3626 392.494 20.2831 392.574 20.3626 392.653C20.2831 392.812 20.3626 393.051 20.5217 393.21C20.6808 393.29 20.7603 393.449 20.9194 393.528C21.0785 393.608 21.4762 393.608 21.6353 393.449C22.1125 392.653 22.3512 391.779 22.033 390.984Z" fill="#E8D26F"/>
<path d="M24.817 387.882C24.976 387.723 24.8965 387.485 24.7374 387.326C24.5783 387.167 24.3397 387.167 24.1806 387.246C24.0215 387.326 23.8625 387.564 23.942 387.803C24.0215 387.962 24.1011 388.041 24.1806 388.121L24.2602 388.201C24.2602 388.201 24.3397 388.201 24.4192 388.201C24.4192 388.201 24.4988 388.2 24.4988 388.121C24.6579 388.121 24.7374 388.041 24.817 387.882Z" fill="#E8D26F"/>
<path d="M47.4863 417.542C47.5658 416.906 46.9295 416.429 46.2931 416.429C45.8159 416.429 45.4182 416.747 45.1 417.065C44.1455 417.304 43.191 417.701 42.3161 418.258C41.8388 418.576 41.9979 419.371 42.6342 419.371C43.5887 419.291 44.6228 419.132 45.5773 418.894C46.2931 418.655 47.4067 418.417 47.4863 417.542Z" fill="#E8D26F"/>
<path d="M41.0434 416.826C40.9639 416.747 40.8843 416.667 40.7253 416.667C40.7253 416.667 40.7253 416.667 40.6457 416.667C40.4071 416.667 40.248 416.747 40.0889 416.747C40.0094 416.747 39.9298 416.747 39.7708 416.826C39.6117 416.906 39.4526 416.985 39.373 417.065C39.214 417.145 39.214 417.463 39.2935 417.622C39.373 417.781 39.5321 417.94 39.7708 417.94C39.9298 417.94 40.0094 417.94 40.1685 417.86C40.248 417.781 40.4071 417.781 40.4866 417.701C40.6457 417.622 40.8048 417.542 40.9639 417.383C41.123 417.224 41.2025 416.986 41.0434 416.826Z" fill="#E8D26F"/>
<path d="M71.826 379.851C71.6669 379.056 71.5874 378.34 71.1897 377.545C70.7919 376.83 70.1556 376.193 69.6784 375.478H69.5988C69.7579 376.273 69.8374 377.148 70.0761 377.943C70.3942 378.738 70.8715 379.295 71.3487 379.931C71.5078 380.249 71.9055 380.09 71.826 379.851Z" fill="#E8D26F"/>
<path d="M54.9632 397.186C54.2473 397.981 53.1337 398.617 52.0201 398.379C50.7475 398.14 49.9521 396.947 50.3498 395.675C50.7475 394.562 51.8611 393.846 52.8156 393.21C53.6905 392.733 55.52 391.938 55.7586 393.608C55.7586 393.687 55.8381 393.687 55.8381 393.608C56.2358 392.256 54.645 391.62 53.5314 391.858C51.8611 392.176 50.0316 393.608 49.5544 395.277C49.0771 396.788 49.8725 398.379 51.3838 398.856C52.8951 399.412 54.4064 398.617 55.2813 397.345C55.3609 397.265 55.0427 397.106 54.9632 397.186Z" fill="#E8D26F"/>
<path opacity="0.3686" d="M70.5533 410.863C65.6217 419.61 57.5085 425.891 47.8044 428.595C40.1685 430.742 32.2939 430.424 25.0556 427.8C34.521 424.062 43.191 418.258 50.2702 410.942C60.4515 400.287 67.133 386.292 69.2011 371.581C71.3487 374.842 72.9396 378.42 74.0531 382.237C76.7576 391.938 75.4849 402.116 70.5533 410.863Z" fill="#F2DE83"/>
<path d="M26.5669 377.545C26.0896 377.068 25.2147 376.75 24.7374 377.386C24.5783 377.625 24.817 378.022 25.0556 377.863C25.2942 377.704 25.6124 377.784 25.7715 378.102C25.9305 378.42 25.7715 378.738 25.6124 379.056C25.2942 379.692 24.7374 380.249 24.2602 380.726C23.4647 381.601 22.5898 382.237 21.3967 382.237C21.8739 380.646 22.7489 379.374 23.8625 378.102C23.942 378.022 23.8625 378.022 23.7829 378.022C22.3512 379.295 21.0785 380.885 20.0445 382.475C19.8854 382.793 19.9649 383.191 20.2831 383.35C22.7489 384.781 25.0556 382.157 26.2487 380.328C26.8055 379.454 27.2827 378.34 26.5669 377.545Z" fill="#E8D26F"/>
<path d="M22.7489 410.863C23.2261 409.988 22.9875 408.954 22.7489 408.08C22.1921 406.171 21.5557 404.104 19.7263 402.911C18.2945 401.957 16.2265 402.036 15.1924 403.547C14.3175 404.899 14.9538 406.728 15.9878 407.841C15.9083 407.921 15.9083 408 15.9878 408.159C16.6242 409.034 17.4196 409.829 18.2945 410.545C19.0104 411.101 19.8058 411.817 20.7603 411.976C21.5557 412.135 22.3512 411.578 22.7489 410.863ZM21.2376 410.386C20.6808 411.022 19.4877 409.988 19.0104 409.67C18.1355 409.113 17.34 408.477 16.5446 407.841C16.4651 407.762 16.306 407.762 16.2265 407.762C15.6697 406.569 14.7947 404.978 16.0674 403.945C17.6582 402.672 19.5672 404.104 20.3626 405.615C20.7603 406.33 20.999 407.205 21.2376 408C21.3171 408.636 21.7944 409.829 21.2376 410.386Z" fill="#E8D26F"/>
<path d="M63.156 406.012C63.156 405.774 62.9173 405.535 62.6787 405.615C61.8833 405.774 61.0879 406.251 60.6106 406.887C60.2129 407.364 60.7697 408.159 61.3265 408.08C61.406 408.08 61.4856 408.08 61.5651 408.08C61.8833 408.159 62.2015 408 62.3605 407.762C62.6787 407.603 62.9969 407.284 63.2355 406.966C63.4741 406.648 63.3946 406.251 63.156 406.012Z" fill="#E8D26F"/>
<path d="M46.4522 366.731C45.8955 366.651 45.3387 366.651 44.7819 366.731C44.7023 366.731 44.6228 366.731 44.5432 366.731C44.3842 366.731 44.1455 366.731 43.9865 366.81C43.9069 366.81 43.7478 366.89 43.6683 366.89C43.5887 366.89 43.3501 366.969 43.5092 366.969C42.8729 366.969 42.7138 367.765 43.191 368.083C44.3046 368.878 45.7364 368.719 46.7704 367.924C47.1681 367.606 46.9295 366.81 46.4522 366.731Z" fill="#E8D26F"/>
<path d="M39.6912 357.666C39.214 356.314 37.9413 355.36 36.5096 355.678C35.8732 355.758 36.1118 356.632 36.6686 356.712C37.6231 356.791 38.2595 357.905 38.2595 358.779C38.2595 360.052 37.0663 361.085 36.0323 361.801C33.8847 363.153 31.4984 364.107 29.0326 364.584C27.8395 364.823 26.6464 364.982 25.4533 364.982C24.4192 365.061 22.908 365.141 22.1125 364.345C20.6012 362.835 23.7829 360.131 24.7374 359.177C26.885 357.189 29.5894 355.837 32.3734 354.962C32.5325 354.962 32.4529 354.724 32.3734 354.724C29.1917 355.122 26.1692 356.314 23.5443 358.143C21.3171 359.654 17.5787 362.755 19.7263 365.777C21.8739 368.878 26.6464 367.924 29.669 367.049C32.7711 366.174 35.9528 364.664 38.339 362.437C39.4526 361.165 40.3275 359.415 39.6912 357.666Z" fill="#E8D26F"/>
<path d="M21.8739 366.572C21.7148 366.015 21.0785 365.777 20.6012 366.015C19.7263 366.492 19.7263 367.606 19.4877 368.48C19.1695 369.435 18.6127 370.309 18.1355 371.184C18.0559 371.263 18.215 371.422 18.2945 371.343C19.1695 370.786 19.8058 369.991 20.5217 369.276C21.158 368.56 22.1921 367.606 21.8739 366.572Z" fill="#E8D26F"/>
<path d="M24.7374 367.049C24.5783 366.174 23.3852 366.174 22.908 366.81C22.4307 367.526 22.5898 368.639 22.4307 369.514C22.2716 370.309 21.9535 371.104 21.8739 371.899C21.8739 371.979 22.033 372.059 22.1125 371.979C22.8284 371.502 23.3852 370.627 23.7829 369.912C24.3397 369.037 24.976 368.003 24.7374 367.049Z" fill="#E8D26F"/>
<path d="M26.8055 370.15C26.6464 369.753 26.5669 369.196 26.8055 368.798C27.0441 368.401 27.2827 368.083 27.5214 367.685C27.9986 366.969 26.9646 366.413 26.4078 366.81C25.7715 367.288 25.6124 367.924 25.851 368.719C26.0101 369.275 26.2487 369.832 26.7259 370.23C26.7259 370.309 26.8055 370.309 26.8055 370.15Z" fill="#E8D26F"/>
<path d="M43.191 360.052C42.3956 360.449 41.5207 360.608 40.6457 360.608C39.8503 360.608 39.1344 360.37 38.339 360.37C37.4641 360.37 37.305 361.642 38.1799 361.801C39.0549 362.04 40.0889 361.721 40.8843 361.403C41.7593 361.085 42.4752 360.608 43.2706 360.131C43.3501 360.131 43.2706 359.972 43.191 360.052Z" fill="#E8D26F"/>
<path d="M39.8503 363.471C39.373 363.55 38.9753 363.471 38.4981 363.312C38.0208 363.153 37.8618 362.755 37.5436 362.437C36.9073 361.88 35.9528 362.755 36.5891 363.391C36.9868 363.789 37.7027 363.948 38.339 363.948C38.8958 364.027 39.373 363.868 39.9298 363.709C40.0889 363.63 40.0094 363.391 39.8503 363.471Z" fill="#E8D26F"/>
<path d="M11.6926 388.121C12.0903 385.656 12.4085 381.998 10.3404 380.09C9.3859 379.215 8.03369 378.897 6.92011 379.533C6.04516 380.09 5.40882 381.044 5.80653 382.157C5.96561 382.555 6.60195 382.396 6.44286 381.998C6.28378 381.442 6.60195 380.726 7.15874 380.408C7.79507 380.09 8.4314 380.408 8.90865 380.805C9.86315 381.601 9.94269 382.793 9.86315 383.986C9.70406 386.451 9.06773 389.155 7.79507 391.222C7.4769 391.779 7.0792 392.335 6.60195 392.812C6.36332 393.051 6.04516 393.528 5.64745 393.449C4.85203 393.369 4.61341 391.461 4.53387 390.904C4.05662 388.28 4.2157 385.576 4.93157 383.032C5.01112 382.873 4.69295 382.793 4.61341 382.952C3.49983 385.497 2.86349 388.2 2.86349 390.904C2.86349 392.176 2.86349 393.767 3.65891 394.88C4.53387 396.073 6.04516 396.311 7.31782 395.516C9.70406 394.085 11.2154 390.745 11.6926 388.121Z" fill="#E8D26F"/>
<path d="M14.2379 382.634C14.2379 382.555 14.1584 382.475 14.0788 382.555C13.6016 382.793 13.1243 383.191 12.6471 383.429C12.0903 383.668 11.454 383.589 10.8972 383.827C10.2609 384.225 10.3404 385.338 11.1358 385.497C12.488 385.735 14.3175 384.066 14.2379 382.634Z" fill="#E8D26F"/>
<path d="M14.7152 387.723C14.1584 387.485 13.6016 387.405 13.0448 387.246C12.488 387.087 11.9312 386.769 11.3744 386.61C10.4995 386.451 10.1018 387.882 11.0563 387.962C11.6131 388.041 12.2494 387.962 12.8857 387.962C13.5221 387.962 14.1584 388.041 14.7152 388.041C14.8743 388.121 14.8743 387.803 14.7152 387.723Z" fill="#E8D26F"/>
<path d="M13.1243 394.323C12.7266 393.21 11.7721 392.176 10.7381 391.54C9.54498 390.824 8.74957 392.971 10.1018 393.21C10.6586 393.29 11.1358 393.369 11.6131 393.687C12.0903 393.926 12.488 394.244 12.8857 394.482C13.0448 394.562 13.2039 394.482 13.1243 394.323Z" fill="#E8D26F"/>
<path d="M9.94269 397.027C9.62452 396.629 9.30635 396.311 8.98819 395.914C8.67002 395.516 8.4314 395.118 8.03369 394.88C7.39736 394.482 6.60194 395.437 7.23827 395.993C7.63598 396.311 8.03369 396.47 8.51094 396.709C8.98819 396.947 9.3859 397.186 9.86314 397.345C9.94269 397.345 10.1018 397.186 9.94269 397.027Z" fill="#E8D26F"/>
<path d="M66.1785 413.725C65.4627 413.328 64.5877 413.487 63.7923 413.646C62.9173 413.805 61.9628 414.043 61.0879 414.361C59.338 414.998 57.6676 415.872 56.3154 417.065C54.9632 418.258 53.4519 419.928 52.9746 421.677C52.9746 421.757 52.9746 421.836 52.9746 421.916C52.6565 422.711 52.6565 423.506 53.2928 424.301C54.5655 425.812 56.6336 425.255 58.2244 424.619C61.6447 423.267 64.5877 420.882 66.4172 417.622C67.133 416.429 67.8489 414.52 66.1785 413.725ZM65.3831 416.429C63.8718 418.894 61.6447 420.882 59.0993 422.154C58.463 422.472 57.8267 422.711 57.1108 422.949C56.4745 423.108 55.6791 423.426 55.1223 423.188C53.7701 422.631 55.3609 421.041 55.8381 420.484C57.429 418.655 59.2584 417.065 61.247 415.713C61.8833 415.395 62.5196 415.157 63.2355 415.077C63.8718 414.918 64.5877 414.759 65.224 414.839C66.2581 414.998 65.7013 415.872 65.3831 416.429Z" fill="#E8D26F"/>
<path d="M64.0309 413.089C64.0309 412.453 64.1104 411.817 64.19 411.181C64.19 411.101 64.1104 411.022 64.0309 411.101C63.7923 411.658 63.5537 412.215 63.2355 412.771C62.9173 413.248 62.5196 413.646 62.5196 414.282C62.5196 414.918 63.3946 415.157 63.7127 414.6C64.1104 414.123 64.0309 413.646 64.0309 413.089Z" fill="#E8D26F"/>
<path d="M56.4745 417.224C55.0427 417.065 53.611 416.508 52.1792 416.031C52.0997 416.031 52.0997 416.111 52.0997 416.111C53.2928 416.826 54.645 417.463 55.7586 418.417C56.7926 419.292 57.5085 417.304 56.4745 417.224Z" fill="#E8D26F"/>
<path d="M55.9972 419.53C55.9972 419.212 55.6791 418.894 55.3609 418.894C54.0882 418.973 52.736 418.973 51.4634 418.735C51.3838 418.735 51.3838 418.814 51.4634 418.894C52.5769 419.132 53.6905 419.53 54.7246 419.928C54.7246 420.007 54.7246 420.087 54.8041 420.166C54.8836 420.643 55.6791 420.723 55.8381 420.325C55.9972 420.087 55.9972 419.848 55.9972 419.53Z" fill="#E8D26F"/>
<path d="M53.2928 421.677C52.736 421.597 52.0997 421.836 51.5429 421.836C51.0657 421.916 50.5089 421.916 50.0316 421.995C49.9521 421.995 49.9521 422.154 50.0316 422.154C50.5884 422.393 51.1452 422.393 51.702 422.552C52.2588 422.631 52.736 422.87 53.2928 422.87C54.1678 422.949 54.0882 421.757 53.2928 421.677Z" fill="#E8D26F"/>
<path d="M42.3161 427.482C42.157 425.017 39.0549 425.255 37.3845 425.653C36.43 425.812 35.2369 426.05 34.6801 426.925C34.2028 427.641 34.4415 428.515 35.2369 428.993C35.7937 429.311 36.5891 429.311 37.2254 429.311C37.305 429.47 37.4641 429.549 37.6231 429.549C38.7367 429.231 39.8503 429.708 40.8843 429.47C41.6798 429.231 42.3956 428.436 42.3161 427.482ZM35.8732 428.038C35.6346 427.72 35.8732 427.72 36.1914 427.561C36.7482 427.323 37.3845 427.243 37.9413 427.164C38.5776 427.084 39.214 427.005 39.7708 427.005C40.4071 427.084 41.282 427.561 40.5662 428.197C40.0889 428.595 39.373 428.595 38.8163 428.595C38.5776 428.595 38.339 428.595 38.1799 428.674C37.7027 428.674 37.2254 428.595 36.8277 428.436C36.5096 428.356 36.0323 428.277 35.8732 428.038Z" fill="#E8D26F"/>
<path d="M72.3032 400.923C72.2237 400.764 71.9851 400.844 71.9851 401.082C72.0646 401.559 71.7464 401.957 71.3487 401.957C71.0306 401.957 70.6329 401.639 70.5533 401.321C70.3147 400.764 70.4738 400.128 70.6329 399.651C70.951 398.617 71.5874 397.822 72.3828 397.027C72.9396 397.902 73.0986 398.856 73.0191 399.889C73.0191 399.969 73.0986 399.969 73.0986 399.889C73.4964 398.776 73.1782 397.504 72.6214 396.47C72.5419 396.311 72.3828 396.311 72.3032 396.391C70.6329 397.265 68.8034 399.73 69.7579 401.639C70.0761 402.354 70.951 402.911 71.7464 402.514C72.3032 402.195 72.5419 401.48 72.3032 400.923Z" fill="#E8D26F"/>
<path d="M52.3383 362.835C52.736 361.562 51.3838 361.006 50.3498 360.926C50.1112 360.926 50.0316 361.244 50.2702 361.403C50.5884 361.562 51.1452 361.801 51.3838 362.119C51.9406 362.994 50.4293 363.073 49.9521 362.994C49.2362 362.914 48.4408 362.835 47.9635 362.199C47.8045 361.96 47.6454 361.721 47.5658 361.483C47.4067 360.688 48.4408 360.131 48.9976 360.767C48.9976 360.767 49.0771 360.767 49.0771 360.688C48.5203 359.893 47.4067 360.29 47.0886 361.085C46.5318 362.358 47.8045 363.391 48.918 363.709C49.8725 363.948 51.8611 364.107 52.3383 362.835Z" fill="#E8D26F"/>
<path d="M647.468 423.108C647.468 423.108 644.923 421.757 644.525 421.757C643.252 414.68 641.343 407.762 638.798 401.082C642.775 401.082 647.07 402.195 649.536 405.376C651.365 407.682 652.002 410.783 651.843 413.725C651.684 416.667 650.809 419.451 647.468 423.108Z" fill="#29C24A"/>
<path d="M666.319 394.164C666.399 394.721 665.762 395.118 665.206 395.357C657.649 398.935 649.775 402.593 641.423 402.911C636.809 403.07 632.275 402.195 627.821 401.4C624.719 400.844 613.583 399.492 610.481 398.935C625.912 397.663 631.878 396.311 641.502 394.403C644.048 393.926 644.366 390.427 645.718 389.95C645.877 389.87 646.036 389.87 646.195 389.87C650.729 390.427 660.91 391.779 665.444 392.335C666.001 392.415 666.16 393.051 666.24 393.608C666.319 393.926 666.319 394.005 666.319 394.164Z" fill="#5D5E5A"/>
<path d="M635.457 433.048C637.843 433.048 640.389 432.571 642.377 431.139C648.184 426.925 651.047 404.899 639.514 402.195C635.934 401.321 632.116 403.309 629.81 406.41C627.503 409.511 626.389 413.487 625.992 417.463C625.514 420.802 624.083 433.048 635.457 433.048Z" fill="#40413C"/>
<path d="M613.742 385.258C605.152 386.61 593.936 390.825 588.289 397.504C592.346 399.651 600.22 400.287 604.754 400.446C612.151 400.685 619.549 400.605 626.946 400.287C629.014 400.207 631.162 400.048 632.912 399.015C636.968 396.709 637.605 391.063 640.786 387.644C631.719 385.815 622.253 383.827 613.742 385.258Z" fill="#CFFFD9"/>
<path d="M679.603 397.265C677.853 397.981 676.58 399.73 676.421 401.639C677.614 401.162 678.807 400.605 680.08 400.446C681.353 400.287 682.705 400.605 683.58 401.559C685.091 403.229 684.455 406.012 685.886 407.762C686.205 406.171 686.602 404.66 686.602 403.07C686.602 401.48 686.284 399.81 685.409 398.538C684.534 397.186 682.864 395.834 679.603 397.265Z" fill="#29C24A"/>
<path d="M672.762 417.701C673.637 420.405 679.921 425.017 684.614 419.132C685.966 417.383 686.682 415.236 686.92 413.089C687.159 410.942 686.92 408.716 686.602 406.569C686.443 405.297 686.205 404.104 685.727 402.911C685.25 401.718 684.455 400.685 683.341 400.048C681.512 399.015 679.046 399.571 677.455 400.923C675.864 402.275 674.91 404.263 674.273 406.33C673.08 410.227 671.489 413.805 672.762 417.701Z" fill="#40413C"/>
<path d="M638.559 402.911C637.127 402.513 635.775 403.706 634.9 404.978C631.798 409.352 630.923 414.998 631.241 420.405C631.4 422.711 631.719 425.096 633.071 427.084C634.344 428.992 636.809 430.344 639.036 429.788C641.582 429.152 643.093 426.448 643.809 423.903C644.684 420.961 645.082 417.86 645.002 414.759C644.923 412.294 644.525 409.829 643.491 407.682C642.377 405.456 640.548 403.468 638.559 402.911Z" fill="#5D5E5A"/>
<path d="M588.289 398.458C594.732 393.29 603.243 388.678 611.276 386.849C616.606 385.576 622.094 385.974 627.503 386.292C631.798 386.61 636.253 386.849 640.23 388.439C637.923 391.699 635.537 395.118 633.389 398.697C634.582 398.458 635.775 398.538 636.968 398.697C639.514 394.641 642.298 390.745 645.002 386.849C644.843 386.69 644.843 386.61 644.843 386.61C634.423 384.384 623.605 383.111 613.026 384.543C602.447 385.894 591.948 390.029 584.153 397.345C585.823 398.538 586.221 398.538 588.289 398.458Z" fill="#40413C"/>
<path d="M636.73 397.742C627.98 401.559 619.867 406.728 612.549 412.771C597.516 413.964 581.767 413.487 566.733 410.624C565.858 410.465 565.063 410.306 564.188 410.147C563.313 409.988 562.438 409.749 561.563 409.59C561.643 409.511 561.722 409.352 561.802 409.272C564.029 405.853 567.131 402.832 570.71 400.526C575.324 397.583 580.812 395.755 586.3 395.516C589.005 397.822 592.823 398.22 596.402 398.458C609.606 399.412 622.969 398.935 636.73 397.742Z" fill="#29C24A"/>
<path d="M625.435 404.263C622.174 403.786 618.833 404.024 615.492 405.138C611.992 407.285 608.731 409.75 605.629 412.612C605.47 412.771 605.39 412.851 605.311 412.93C608.811 412.93 612.231 412.851 615.81 412.692C618.992 409.909 622.333 407.205 625.435 404.263Z" fill="white"/>
<path d="M678.171 402.752C679.284 401.559 680.955 400.685 682.466 401.321C683.898 401.957 684.614 403.786 685.011 405.535C685.966 409.272 686.205 413.487 684.693 416.986C684.296 417.86 683.818 418.735 683.023 419.292C678.171 422.711 675.705 413.805 675.626 412.215C675.467 409.034 675.785 405.376 678.171 402.752Z" fill="#5D5E5A"/>
<path d="M666.16 394.323C658.286 396.391 653.195 397.424 646.593 399.174C644.923 397.186 642.059 396.47 639.514 396.788C636.968 397.106 634.582 398.299 632.275 399.651C626.867 402.832 619.231 406.41 616.765 411.896C616.765 411.896 622.253 411.896 627.185 410.783C631.162 409.909 634.821 407.841 634.9 407.921C635.696 405.853 637.446 404.183 639.514 403.468C641.661 402.752 644.207 403.309 645.718 404.979C646.911 406.33 647.309 408.159 647.627 409.988C648.263 414.282 648.263 418.735 647.627 423.108C657.411 420.802 667.274 418.576 677.216 416.031C675.864 411.578 675.944 406.728 677.535 402.354C678.171 400.526 679.364 398.617 681.194 398.299C682.705 397.981 684.216 398.856 685.171 400.048C686.125 401.241 686.443 402.832 686.602 404.66C687.08 403.15 686.602 401.559 686.125 400.128C685.25 397.424 684.375 394.721 683.58 392.574C674.83 389.393 665.603 387.723 656.456 387.644C652.718 387.087 648.82 387.962 645.798 390.109C645.798 390.109 646.513 390.268 646.354 390.268C652.956 391.143 659.558 393.051 666.16 394.323Z" fill="#3FDB61"/>
<path opacity="0.5294" d="M681.273 393.29C669.58 396.709 657.729 399.81 645.798 402.434C646.991 403.229 647.786 404.422 648.025 405.615C658.763 401.162 669.74 397.106 681.273 393.29Z" fill="#77F793"/>
<path d="M659.717 402.672C664.728 400.844 669.899 399.174 675.626 397.901C675.466 402.911 674.035 407.921 671.489 412.294C670.774 411.578 669.501 411.658 668.626 412.135C667.751 412.612 667.035 413.407 666.24 414.043C664.41 415.634 662.104 416.588 659.717 416.747C663.694 415.236 667.274 412.612 669.739 409.59C670.614 406.489 671.251 403.388 671.887 400.048C667.99 400.605 664.172 401.559 659.717 402.672Z" fill="#40413C"/>
<path d="M674.114 392.017C674.114 392.017 667.035 394.085 666.876 394.085C666.717 393.926 666.478 393.846 666.319 393.767C666.24 393.131 665.365 393.29 664.808 393.21C660.274 392.653 650.809 390.586 646.195 390.029C646.036 390.029 645.877 390.029 645.718 390.109C647.468 388.598 650.172 388.439 652.559 388.519C659.876 388.678 667.115 389.87 674.114 392.017Z" fill="#29C24A"/>
<path d="M587.016 421.757C584.551 422.949 581.608 422.552 578.983 421.677C576.994 420.961 575.006 420.087 573.494 418.894C568.563 419.132 564.108 416.667 560.609 413.407C560.449 415.952 561.643 420.882 561.643 420.882C561.643 420.882 577.63 427.8 589.959 428.992C588.528 427.323 587.414 424.54 587.016 421.757Z" fill="#40413C"/>
<path d="M615.651 423.824C620.503 425.255 625.276 426.686 630.048 428.436C623.526 430.185 616.606 430.742 610.083 429.867C611.515 427.561 613.424 425.494 615.651 423.824Z" fill="#5D5E5A"/>
<path d="M616.765 424.062C614.538 421.915 612.549 419.53 610.72 416.985L589.164 421.12L597.595 427.482L612.072 430.106L616.765 424.062Z" fill="#40413C"/>
<path d="M634.9 407.921C611.038 414.52 585.903 414.68 561.802 409.272C560.131 411.34 560.609 414.123 560.609 414.123C560.609 414.123 564.347 418.894 573.256 419.928C574.687 420.087 575.721 421.359 576.994 422.075C580.971 424.142 585.664 424.222 590.118 423.744C595.925 423.188 601.652 421.916 607.22 419.928C608.174 419.61 609.288 419.212 610.242 419.61C610.799 419.848 611.276 420.246 611.674 420.723C616.447 425.255 622.89 428.118 629.889 428.754C630.685 419.292 632.594 413.01 634.9 407.921Z" fill="#3FDB61"/>
<path d="M597.595 427.482L589.164 420.484L585.744 420.723L589.164 430.821L611.038 432.014L612.788 429.152L597.595 427.482Z" fill="#29C24A"/>
<path d="M572.063 427.561C568.245 426.528 564.427 425.494 560.609 424.46L558.302 420.246L567.131 422.79L572.699 418.258L576.199 419.212L572.063 427.561Z" fill="#29C24A"/>
<path d="M645.718 390.029C648.104 388.518 651.524 388.757 653.354 390.824C657.729 389.234 663.774 390.904 667.274 394.005C666.796 394.164 666.001 394.323 665.444 394.482L645.718 390.029Z" fill="#5D5E5A"/>
<path opacity="0.5294" d="M655.263 397.027C661.149 395.436 669.899 393.687 675.546 391.461C670.774 394.164 662.581 395.436 657.331 397.186C656.933 397.345 656.536 397.504 656.138 397.424C655.82 397.424 655.342 397.583 655.263 397.027Z" fill="#77F793"/>
<path d="M571.029 402.991C567.211 406.251 566.813 410.147 566.813 410.306C565.381 409.988 565.142 409.988 564.267 409.829C563.154 409.59 562.836 409.511 561.802 409.272C564.029 405.853 567.131 402.832 570.71 400.526C570.949 401.321 571.108 402.116 571.029 402.991Z" fill="white"/>
<path d="M646.911 400.287C646.275 399.651 646.036 398.617 646.195 398.14C646.434 396.788 647.707 395.834 648.979 395.516C650.252 395.198 651.684 395.437 653.195 395.596C654.627 395.914 655.82 396.868 656.695 398.22C656.376 398.697 656.138 399.253 656.217 399.969C653.195 400.128 650.093 400.208 646.911 400.287Z" fill="#29C24A"/>
</g>
<defs>
<linearGradient id="paint0_linear_127_242" x1="336.08" y1="131.785" x2="336.08" y2="470.85" gradientUnits="userSpaceOnUse">
<stop stop-color="#E2B56A"/>
<stop offset="0.3545" stop-color="#DFB268"/>
<stop offset="0.6443" stop-color="#D5A862"/>
<stop offset="0.9105" stop-color="#C49758"/>
<stop offset="1" stop-color="#BD8F53"/>
</linearGradient>
<linearGradient id="paint1_linear_127_242" x1="336.358" y1="220.261" x2="336.358" y2="0" gradientUnits="userSpaceOnUse">
<stop stop-color="#3FDB61"/>
<stop offset="0.1813" stop-color="#42DC64" stop-opacity="0.8187"/>
<stop offset="0.3279" stop-color="#4CDD6C" stop-opacity="0.6721"/>
<stop offset="0.4625" stop-color="#5DE17A" stop-opacity="0.5375"/>
<stop offset="0.5898" stop-color="#75E58E" stop-opacity="0.4102"/>
<stop offset="0.7121" stop-color="#94EBA7" stop-opacity="0.2879"/>
<stop offset="0.8305" stop-color="#BAF2C6" stop-opacity="0.1695"/>
<stop offset="0.9438" stop-color="#E6FAEB" stop-opacity="0.0562091"/>
<stop offset="1" stop-color="white" stop-opacity="0"/>
</linearGradient>
<linearGradient id="paint2_linear_127_242" x1="314.783" y1="214.753" x2="281.91" y2="163.74" gradientUnits="userSpaceOnUse">
<stop stop-color="#3FDB61"/>
<stop offset="0.1813" stop-color="#42DC64" stop-opacity="0.8187"/>
<stop offset="0.3279" stop-color="#4CDD6C" stop-opacity="0.6721"/>
<stop offset="0.4625" stop-color="#5DE17A" stop-opacity="0.5375"/>
<stop offset="0.5898" stop-color="#75E58E" stop-opacity="0.4102"/>
<stop offset="0.7121" stop-color="#94EBA7" stop-opacity="0.2879"/>
<stop offset="0.8305" stop-color="#BAF2C6" stop-opacity="0.1695"/>
<stop offset="0.9438" stop-color="#E6FAEB" stop-opacity="0.0562091"/>
<stop offset="1" stop-color="white" stop-opacity="0"/>
</linearGradient>
<linearGradient id="paint3_linear_127_242" x1="268.223" y1="218.924" x2="139.616" y2="110.309" gradientUnits="userSpaceOnUse">
<stop stop-color="#3FDB61"/>
<stop offset="0.1813" stop-color="#42DC64" stop-opacity="0.8187"/>
<stop offset="0.3279" stop-color="#4CDD6C" stop-opacity="0.6721"/>
<stop offset="0.4625" stop-color="#5DE17A" stop-opacity="0.5375"/>
<stop offset="0.5898" stop-color="#75E58E" stop-opacity="0.4102"/>
<stop offset="0.7121" stop-color="#94EBA7" stop-opacity="0.2879"/>
<stop offset="0.8305" stop-color="#BAF2C6" stop-opacity="0.1695"/>
<stop offset="0.9438" stop-color="#E6FAEB" stop-opacity="0.0562091"/>
<stop offset="1" stop-color="white" stop-opacity="0"/>
</linearGradient>
<linearGradient id="paint4_linear_127_242" x1="287.785" y1="232.729" x2="252.012" y2="219.28" gradientUnits="userSpaceOnUse">
<stop stop-color="#3FDB61"/>
<stop offset="0.1813" stop-color="#42DC64" stop-opacity="0.8187"/>
<stop offset="0.3279" stop-color="#4CDD6C" stop-opacity="0.6721"/>
<stop offset="0.4625" stop-color="#5DE17A" stop-opacity="0.5375"/>
<stop offset="0.5898" stop-color="#75E58E" stop-opacity="0.4102"/>
<stop offset="0.7121" stop-color="#94EBA7" stop-opacity="0.2879"/>
<stop offset="0.8305" stop-color="#BAF2C6" stop-opacity="0.1695"/>
<stop offset="0.9438" stop-color="#E6FAEB" stop-opacity="0.0562091"/>
<stop offset="1" stop-color="white" stop-opacity="0"/>
</linearGradient>
<linearGradient id="paint5_linear_127_242" x1="225.127" y1="238.452" x2="82.339" y2="214.066" gradientUnits="userSpaceOnUse">
<stop stop-color="#3FDB61"/>
<stop offset="0.1813" stop-color="#42DC64" stop-opacity="0.8187"/>
<stop offset="0.3279" stop-color="#4CDD6C" stop-opacity="0.6721"/>
<stop offset="0.4625" stop-color="#5DE17A" stop-opacity="0.5375"/>
<stop offset="0.5898" stop-color="#75E58E" stop-opacity="0.4102"/>
<stop offset="0.7121" stop-color="#94EBA7" stop-opacity="0.2879"/>
<stop offset="0.8305" stop-color="#BAF2C6" stop-opacity="0.1695"/>
<stop offset="0.9438" stop-color="#E6FAEB" stop-opacity="0.0562091"/>
<stop offset="1" stop-color="white" stop-opacity="0"/>
</linearGradient>
<linearGradient id="paint6_linear_127_242" x1="357.455" y1="214.753" x2="390.329" y2="163.74" gradientUnits="userSpaceOnUse">
<stop stop-color="#3FDB61"/>
<stop offset="0.1813" stop-color="#42DC64" stop-opacity="0.8187"/>
<stop offset="0.3279" stop-color="#4CDD6C" stop-opacity="0.6721"/>
<stop offset="0.4625" stop-color="#5DE17A" stop-opacity="0.5375"/>
<stop offset="0.5898" stop-color="#75E58E" stop-opacity="0.4102"/>
<stop offset="0.7121" stop-color="#94EBA7" stop-opacity="0.2879"/>
<stop offset="0.8305" stop-color="#BAF2C6" stop-opacity="0.1695"/>
<stop offset="0.9438" stop-color="#E6FAEB" stop-opacity="0.0562091"/>
<stop offset="1" stop-color="white" stop-opacity="0"/>
</linearGradient>
<linearGradient id="paint7_linear_127_242" x1="404.016" y1="218.924" x2="532.622" y2="110.309" gradientUnits="userSpaceOnUse">
<stop stop-color="#3FDB61"/>
<stop offset="0.1813" stop-color="#42DC64" stop-opacity="0.8187"/>
<stop offset="0.3279" stop-color="#4CDD6C" stop-opacity="0.6721"/>
<stop offset="0.4625" stop-color="#5DE17A" stop-opacity="0.5375"/>
<stop offset="0.5898" stop-color="#75E58E" stop-opacity="0.4102"/>
<stop offset="0.7121" stop-color="#94EBA7" stop-opacity="0.2879"/>
<stop offset="0.8305" stop-color="#BAF2C6" stop-opacity="0.1695"/>
<stop offset="0.9438" stop-color="#E6FAEB" stop-opacity="0.0562091"/>
<stop offset="1" stop-color="white" stop-opacity="0"/>
</linearGradient>
<linearGradient id="paint8_linear_127_242" x1="384.454" y1="232.729" x2="420.227" y2="219.28" gradientUnits="userSpaceOnUse">
<stop stop-color="#3FDB61"/>
<stop offset="0.1813" stop-color="#42DC64" stop-opacity="0.8187"/>
<stop offset="0.3279" stop-color="#4CDD6C" stop-opacity="0.6721"/>
<stop offset="0.4625" stop-color="#5DE17A" stop-opacity="0.5375"/>
<stop offset="0.5898" stop-color="#75E58E" stop-opacity="0.4102"/>
<stop offset="0.7121" stop-color="#94EBA7" stop-opacity="0.2879"/>
<stop offset="0.8305" stop-color="#BAF2C6" stop-opacity="0.1695"/>
<stop offset="0.9438" stop-color="#E6FAEB" stop-opacity="0.0562091"/>
<stop offset="1" stop-color="white" stop-opacity="0"/>
</linearGradient>
<linearGradient id="paint9_linear_127_242" x1="447.112" y1="238.452" x2="589.9" y2="214.066" gradientUnits="userSpaceOnUse">
<stop stop-color="#3FDB61"/>
<stop offset="0.1813" stop-color="#42DC64" stop-opacity="0.8187"/>
<stop offset="0.3279" stop-color="#4CDD6C" stop-opacity="0.6721"/>
<stop offset="0.4625" stop-color="#5DE17A" stop-opacity="0.5375"/>
<stop offset="0.5898" stop-color="#75E58E" stop-opacity="0.4102"/>
<stop offset="0.7121" stop-color="#94EBA7" stop-opacity="0.2879"/>
<stop offset="0.8305" stop-color="#BAF2C6" stop-opacity="0.1695"/>
<stop offset="0.9438" stop-color="#E6FAEB" stop-opacity="0.0562091"/>
<stop offset="1" stop-color="white" stop-opacity="0"/>
</linearGradient>
<clipPath id="clip0_127_242">
<rect width="687" height="691" fill="white"/>
</clipPath>
</defs>
</svg>
